HIERARCHY
ROOT Root
{
  OFFSET 0.0 0.0 0.0
  CHANNELS 6 Xposition Yposition Zposition Zrotation Yrotation Xrotation
  JOINT Hips
  {
    OFFSET 0.0 100.0 0.0
    CHANNELS 6 Xposition Yposition Zposition Zrotation Yrotation Xrotation
    JOINT Spine1
    {
      OFFSET -0.013727 5.003763 -0.053727
      CHANNELS 3 Zrotation Yrotation Xrotation
      JOINT Spine2
      {
        OFFSET -0.0 7.125301 -0.029825
        CHANNELS 3 Zrotation Yrotation Xrotation
        JOINT Chest
        {
          OFFSET -1e-06 7.550063 -0.815971
          CHANNELS 3 Zrotation Yrotation Xrotation
          JOINT Neck1
          {
            OFFSET -0.181677 26.311295 -0.553348
            CHANNELS 3 Zrotation Yrotation Xrotation
            JOINT Neck2
            {
              OFFSET -3e-06 7.709397 2.302585
              CHANNELS 3 Zrotation Yrotation Xrotation
              JOINT Head
              {
                OFFSET -5e-06 6.128916 1.953709
                CHANNELS 3 Zrotation Yrotation Xrotation
                JOINT HeadEnd
                {
                  OFFSET 0.003598 16.065403 -1.835379
                  CHANNELS 3 Zrotation Yrotation Xrotation
                }
                JOINT Jaw
                {
                  OFFSET 0.002637 0.475592 3.094941
                  CHANNELS 3 Zrotation Yrotation Xrotation
                }
                JOINT LeftEye
                {
                  OFFSET 3.206381 5.380205 7.586883
                  CHANNELS 3 Zrotation Yrotation Xrotation
                }
                JOINT RightEye
                {
                  OFFSET -3.22244 5.361869 7.558234
                  CHANNELS 3 Zrotation Yrotation Xrotation
                }
              }
            }
          }
          JOINT LeftShoulder
          {
            OFFSET 1.621652 23.237164 5.113413
            CHANNELS 3 Zrotation Yrotation Xrotation
            JOINT LeftArm
            {
              OFFSET 14.919846 2e-06 -5.502326
              CHANNELS 3 Zrotation Yrotation Xrotation
              JOINT LeftForeArm
              {
                OFFSET 28.739307 0.0 -0.002588
                CHANNELS 3 Zrotation Yrotation Xrotation
                JOINT LeftHand
                {
                  OFFSET 27.093981 -1e-06 0.002609
                  CHANNELS 3 Zrotation Yrotation Xrotation
                  JOINT LeftHandThumb1
                  {
                    OFFSET 2.276482 -1.392045 3.191413
                    CHANNELS 3 Zrotation Yrotation Xrotation
                    JOINT LeftHandThumb2
                    {
                      OFFSET 4.012836 -1.828127 1.641654
                      CHANNELS 3 Zrotation Yrotation Xrotation
                      JOINT LeftHandThumb3
                      {
                        OFFSET 2.798515 0.0 -3e-06
                        CHANNELS 3 Zrotation Yrotation Xrotation
                        JOINT LeftHandThumbEnd
                        {
                          OFFSET 3.180793 -4e-06 4e-06
                          CHANNELS 3 Zrotation Yrotation Xrotation
                        }
                      }
                    }
                  }
                  JOINT LeftHandIndex1
                  {
                    OFFSET 3.247555 -0.531998 2.296169
                    CHANNELS 3 Zrotation Yrotation Xrotation
                    JOINT LeftHandIndex2
                    {
                      OFFSET 6.364578 0.01206 0.1786
                      CHANNELS 3 Zrotation Yrotation Xrotation
                      JOINT LeftHandIndex3
                      {
                        OFFSET 3.662364 0.0 0.0
                        CHANNELS 3 Zrotation Yrotation Xrotation
                        JOINT LeftHandIndex4
                        {
                          OFFSET 2.329242 4e-06 4e-06
                          CHANNELS 3 Zrotation Yrotation Xrotation
                          JOINT LeftHandIndexEnd
                          {
                            OFFSET 2.759615 -0.180537 -0.113024
                            CHANNELS 3 Zrotation Yrotation Xrotation
                          }
                        }
                      }
                    }
                  }
                  JOINT LeftHandMiddle1
                  {
                    OFFSET 3.163495 0.240981 1.000332
                    CHANNELS 3 Zrotation Yrotation Xrotation
                    JOINT LeftHandMiddle2
                    {
                      OFFSET 6.19078 -0.259278 -1.002548
                      CHANNELS 3 Zrotation Yrotation Xrotation
                      JOINT LeftHandMiddle3
                      {
                        OFFSET 4.35652 -4e-06 -1e-06
                        CHANNELS 3 Zrotation Yrotation Xrotation
                        JOINT LeftHandMiddle4
                        {
                          OFFSET 2.996877 -8e-06 0.0
                          CHANNELS 3 Zrotation Yrotation Xrotation
                          JOINT LeftHandMiddleEnd
                          {
                            OFFSET 2.304287 -0.294569 -0.031741
                            CHANNELS 3 Zrotation Yrotation Xrotation
                          }
                        }
                      }
                    }
                  }
                  JOINT LeftHandRing1
                  {
                    OFFSET 2.882643 -0.053652 -0.322543
                    CHANNELS 3 Zrotation Yrotation Xrotation
                    JOINT LeftHandRing2
                    {
                      OFFSET 5.854541 -0.486202 -1.373841
                      CHANNELS 3 Zrotation Yrotation Xrotation
                      JOINT LeftHandRing3
                      {
                        OFFSET 4.350578 0.0 3e-06
                        CHANNELS 3 Zrotation Yrotation Xrotation
                        JOINT LeftHandRing4
                        {
                          OFFSET 2.651321 7e-06 2e-06
                          CHANNELS 3 Zrotation Yrotation Xrotation
                          JOINT LeftHandRingEnd
                          {
                            OFFSET 1.936105 0.077687 -7.1e-05
                            CHANNELS 3 Zrotation Yrotation Xrotation
                          }
                        }
                      }
                    }
                  }
                  JOINT LeftHandPinky1
                  {
                    OFFSET 2.8655 -0.310005 -1.600378
                    CHANNELS 3 Zrotation Yrotation Xrotation
                    JOINT LeftHandPinky2
                    {
                      OFFSET 5.087849 -1.331141 -1.77123
                      CHANNELS 3 Zrotation Yrotation Xrotation
                      JOINT LeftHandPinky3
                      {
                        OFFSET 3.070974 4e-06 0.0
                        CHANNELS 3 Zrotation Yrotation Xrotation
                        JOINT LeftHandPinky4
                        {
                          OFFSET 1.549672 0.0 1e-06
                          CHANNELS 3 Zrotation Yrotation Xrotation
                          JOINT LeftHandPinkyEnd
                          {
                            OFFSET 1.944893 -0.157802 0.057219
                            CHANNELS 3 Zrotation Yrotation Xrotation
                          }
                        }
                      }
                    }
                  }
                }
              }
            }
          }
          JOINT RightShoulder
          {
            OFFSET -1.380118 23.180309 5.214158
            CHANNELS 3 Zrotation Yrotation Xrotation
            JOINT RightArm
            {
              OFFSET -15.037196 1.2e-05 -5.545604
              CHANNELS 3 Zrotation Yrotation Xrotation
              JOINT RightForeArm
              {
                OFFSET -28.736639 2e-06 -0.002597
                CHANNELS 3 Zrotation Yrotation Xrotation
                JOINT RightHand
                {
                  OFFSET -27.133619 -0.0 0.002613
                  CHANNELS 3 Zrotation Yrotation Xrotation
                  JOINT RightHandThumb1
                  {
                    OFFSET -2.274032 -1.383988 3.163127
                    CHANNELS 3 Zrotation Yrotation Xrotation
                    JOINT RightHandThumb2
                    {
                      OFFSET -4.011429 -1.827466 1.640914
                      CHANNELS 3 Zrotation Yrotation Xrotation
                      JOINT RightHandThumb3
                      {
                        OFFSET -2.794935 -4e-06 -3e-06
                        CHANNELS 3 Zrotation Yrotation Xrotation
                        JOINT RightHandThumbEnd
                        {
                          OFFSET -3.183852 4e-06 1e-06
                          CHANNELS 3 Zrotation Yrotation Xrotation
                        }
                      }
                    }
                  }
                  JOINT RightHandIndex1
                  {
                    OFFSET -3.253266 -0.520057 2.282866
                    CHANNELS 3 Zrotation Yrotation Xrotation
                    JOINT RightHandIndex2
                    {
                      OFFSET -6.341917 0.012471 0.178266
                      CHANNELS 3 Zrotation Yrotation Xrotation
                      JOINT RightHandIndex3
                      {
                        OFFSET -3.654871 -8e-06 -0.0
                        CHANNELS 3 Zrotation Yrotation Xrotation
                        JOINT RightHandIndex4
                        {
                          OFFSET -2.327586 0.0 1e-06
                          CHANNELS 3 Zrotation Yrotation Xrotation
                          JOINT RightHandIndexEnd
                          {
                            OFFSET -2.76179 -0.180656 -0.113078
                            CHANNELS 3 Zrotation Yrotation Xrotation
                          }
                        }
                      }
                    }
                  }
                  JOINT RightHandMiddle1
                  {
                    OFFSET -3.168106 0.246593 1.00103
                    CHANNELS 3 Zrotation Yrotation Xrotation
                    JOINT RightHandMiddle2
                    {
                      OFFSET -6.180828 -0.258836 -1.000895
                      CHANNELS 3 Zrotation Yrotation Xrotation
                      JOINT RightHandMiddle3
                      {
                        OFFSET -4.348901 0.0 -0.0
                        CHANNELS 3 Zrotation Yrotation Xrotation
                        JOINT RightHandMiddle4
                        {
                          OFFSET -3.00024 -4e-06 -2e-06
                          CHANNELS 3 Zrotation Yrotation Xrotation
                          JOINT RightHandMiddleEnd
                          {
                            OFFSET -2.30252 -0.29437 -0.031706
                            CHANNELS 3 Zrotation Yrotation Xrotation
                          }
                        }
                      }
                    }
                  }
                  JOINT RightHandRing1
                  {
                    OFFSET -2.88569 -0.067952 -0.308858
                    CHANNELS 3 Zrotation Yrotation Xrotation
                    JOINT RightHandRing2
                    {
                      OFFSET -5.854198 -0.48613 -1.373731
                      CHANNELS 3 Zrotation Yrotation Xrotation
                      JOINT RightHandRing3
                      {
                        OFFSET -4.33881 -4e-06 -0.0
                        CHANNELS 3 Zrotation Yrotation Xrotation
                        JOINT RightHandRing4
                        {
                          OFFSET -2.654903 -4e-06 4e-06
                          CHANNELS 3 Zrotation Yrotation Xrotation
                          JOINT RightHandRingEnd
                          {
                            OFFSET -1.933568 0.077527 -5.2e-05
                            CHANNELS 3 Zrotation Yrotation Xrotation
                          }
                        }
                      }
                    }
                  }
                  JOINT RightHandPinky1
                  {
                    OFFSET -2.866425 -0.342796 -1.584145
                    CHANNELS 3 Zrotation Yrotation Xrotation
                    JOINT RightHandPinky2
                    {
                      OFFSET -5.091371 -1.332055 -1.772385
                      CHANNELS 3 Zrotation Yrotation Xrotation
                      JOINT RightHandPinky3
                      {
                        OFFSET -3.062664 -4e-06 1e-06
                        CHANNELS 3 Zrotation Yrotation Xrotation
                        JOINT RightHandPinky4
                        {
                          OFFSET -1.546529 4e-06 -2e-06
                          CHANNELS 3 Zrotation Yrotation Xrotation
                          JOINT RightHandPinkyEnd
                          {
                            OFFSET -1.945119 -0.157718 0.057211
                            CHANNELS 3 Zrotation Yrotation Xrotation
                          }
                        }
                      }
                    }
                  }
                }
              }
            }
          }
        }
      }
    }
    JOINT LeftLeg
    {
      OFFSET 10.043214 -8.434526 2.595655
      CHANNELS 3 Zrotation Yrotation Xrotation
      JOINT LeftShin
      {
        OFFSET -1e-06 -43.221752 -0.802913
        CHANNELS 3 Zrotation Yrotation Xrotation
        JOINT LeftFoot
        {
          OFFSET 1e-06 -42.155094 -3.481523
          CHANNELS 3 Zrotation Yrotation Xrotation
          JOINT LeftToeBase
          {
            OFFSET 0.0 -5.059472 13.231529
            CHANNELS 3 Zrotation Yrotation Xrotation
            JOINT LeftToeEnd
            {
              OFFSET -0.009607 -1.647619 6.513017
              CHANNELS 3 Zrotation Yrotation Xrotation
            }
          }
        }
      }
    }
    JOINT RightLeg
    {
      OFFSET -10.047278 -8.29526 2.620317
      CHANNELS 3 Zrotation Yrotation Xrotation
      JOINT RightShin
      {
        OFFSET 1e-06 -43.362206 -0.805556
        CHANNELS 3 Zrotation Yrotation Xrotation
        JOINT RightFoot
        {
          OFFSET 2e-06 -42.117393 -3.478398
          CHANNELS 3 Zrotation Yrotation Xrotation
          JOINT RightToeBase
          {
            OFFSET -0.0 -5.079609 13.284196
            CHANNELS 3 Zrotation Yrotation Xrotation
            JOINT RightToeEnd
            {
              OFFSET 0.009532 -1.634378 6.460591
              CHANNELS 3 Zrotation Yrotation Xrotation
            }
          }
        }
      }
    }
  }
}
MOTION
Frames: 4
Frame Time: 0.03333333333333333
0.0 0.0 0.0 0.0 -0.0 0.0 -3.131676 89.674789 51.178654 5.488282 3.256027 32.060722 4.271321 0.211093 18.531918 0.854752 -1.254767 2.877264 -5.672888 -3.96261 16.962326 -4.547121 4.092328 -12.039759 -1.556003 -1.252236 -3.444279 -3.713064 -2.64709 0.290839 7.6e-05 -2.2e-05 7e-06 0.086491 -0.075851 -0.076434 0.866693 -3.824859 -10.546185 -0.694375 3.682879 -10.459746 17.386383 -15.461821 1.653625 -12.228939 -47.398899 -71.440819 -0.633073 -18.027689 0.491192 12.94242 6.829818 -43.698956 -5.882109 9.861288 0.70259 -10.936873 -0.360573 7.156205 0.0 8.77483 -0.0 -15.518098 18.099691 6.382708 -1.844034 2.498507 -2.507278 -10.1636 4.678948 4.621109 -20.976027 -2e-06 -1e-06 -21.226292 2.451697 -3.594004 1e-06 -6e-06 0.0 -1.362682 2.2408 -0.746323 -21.334921 0.584908 3.008322 -13.821218 -2e-06 0.0 -23.887178 -0.249079 -0.839486 -59.125404 2.395495 -1.321367 -0.294025 1.679689 0.833258 -14.218211 0.093215 1.300579 -34.212059 -0.287565 0.967165 -20.033216 0.964534 1.21284 -1e-06 1e-06 1e-06 -3.440389 0.788234 0.501655 -15.928189 -3.167309 2.999705 -6.338829 -0.0 -1e-06 -18.123453 3.648184 -4.905676 -4e-06 2e-06 -1e-06 -41.146645 18.935787 -3.658077 32.51757 26.136644 -63.034622 0.768467 19.860659 0.403455 -2.722849 -18.126562 -90.515388 2.243543 -5.255042 -3.180161 14.282896 -0.826593 6.952506 -3e-06 -12.690614 0.0 17.010134 -17.063377 2.061784 1.665667 -1.955924 -2.878302 4.727801 -4.170591 4.993927 11.020532 5e-06 -0.0 12.109058 -3.735719 -2.866785 0.0 0.0 0.0 1.291985 -1.928551 -1.498091 14.800138 0.567472 3.865609 14.242582 -1.341735 -6.660661 19.631979 0.143928 -0.648243 50.403801 -1.274914 -6.274824 0.35303 -1.511151 -0.03194 20.222801 3.684315 2.316632 18.787281 6e-06 0.0 10.751633 -0.479869 1.397907 -0.0 -1e-06 0.0 3.273808 0.305947 -0.580112 21.486828 11.830384 2.266136 8.162931 2e-06 -0.0 18.399088 -3.798986 -4.940577 3e-06 0.0 -2e-06 -4.833023 17.726311 -11.074385 0.025412 -1.196145 9.826526 -11.57877 -0.089886 -24.653126 1.744963 -1.999199 0.334856 0.0 0.0 2e-06 5.102232 -5.662687 -71.401543 0.128164 -0.191267 55.202721 -7.208601 11.760418 -15.431892 -1.408233 1.034478 4.061352 0.0 -1e-06 -1e-06 
0.0 0.0 0.0 0.0 -0.0 0.0 -3.293458 89.704613 51.288231 5.56242 3.390815 32.229992 4.312433 0.201016 18.878773 0.864695 -1.241254 2.973502 -5.523643 -3.897225 16.941053 -4.541615 4.172833 -12.037323 -1.699154 -1.471925 -3.441084 -3.875296 -2.875356 0.360965 7.7e-05 -2.3e-05 7e-06 0.073483 -0.066916 -0.070096 0.856121 -3.814106 -10.550393 -0.709285 3.689108 -10.464125 17.748756 -15.430175 1.379911 -9.70818 -46.014694 -73.079285 -0.655013 -18.224098 0.511737 12.496862 6.965804 -43.632946 -5.882108 9.861293 0.702591 -10.936878 -0.360574 7.15621 0.0 8.774832 -1e-06 -15.377566 18.099514 6.515819 -1.844034 2.498505 -2.507279 -10.163604 4.678949 4.621111 -20.976036 -2e-06 2e-06 -21.226299 2.451698 -3.594003 2e-06 -5e-06 -0.0 -1.362682 2.240799 -0.746322 -21.334925 0.584912 3.008324 -13.821221 -2e-06 2e-06 -23.887184 -0.249077 -0.839485 -58.962803 2.486832 -1.27626 -0.294024 1.679688 0.833256 -14.218217 0.093215 1.30058 -34.212067 -0.287563 0.967168 -20.033224 0.964537 1.212843 -1e-06 1e-06 1e-06 -3.440392 0.788236 0.501656 -15.928196 -3.167311 2.999708 -6.33883 -0.0 1e-06 -18.123459 3.648185 -4.905674 -4e-06 0.0 -2e-06 -40.910999 19.002934 -3.569091 31.739473 25.793095 -63.845043 0.618621 20.597399 0.408441 -3.104651 -18.766895 -90.854706 2.243542 -5.255038 -3.180158 14.282894 -0.826593 6.952507 -2e-06 -12.690607 1e-06 16.965172 -17.078554 2.048113 1.665666 -1.955921 -2.878301 4.7278 -4.170588 4.993925 11.020528 2e-06 -3e-06 12.109053 -3.735717 -2.866786 0.0 1e-06 -0.0 1.291985 -1.928549 -1.498091 14.800131 0.567468 3.865609 14.242577 -1.341734 -6.660659 19.631973 0.143926 -0.648246 50.272629 -1.269344 -6.279668 0.353028 -1.511152 -0.03194 20.222799 3.684311 2.31663 18.787279 6e-06 -2e-06 10.751631 -0.479868 1.397907 -1e-06 0.0 0.0 3.273808 0.305947 -0.580111 21.486818 11.830377 2.266133 8.162931 2e-06 -1e-06 18.399088 -3.798986 -4.940576 4e-06 1e-06 -2e-06 -4.784897 17.807171 -10.889215 0.019488 -1.201156 9.144657 -11.663095 -0.361457 -24.066673 1.747384 -1.973028 0.264272 -0.0 -0.0 2e-06 5.326293 -5.859756 -71.472961 0.123742 -0.197511 55.139317 -7.241471 11.86412 -15.487161 -1.408539 1.029603 3.991633 -0.0 -1e-06 -1e-06 
0.0 0.0 0.0 0.0 -0.0 0.0 -3.440266 89.747757 51.384575 5.596605 3.472315 32.461254 4.338166 0.194088 19.27515 0.893366 -1.215772 3.091273 -5.398137 -3.853287 16.929293 -4.57159 4.263197 -11.955774 -1.820317 -1.670417 -3.431516 -4.014702 -3.075584 0.560754 7.7e-05 -2.3e-05 6e-06 0.065897 -0.061302 -0.060162 0.854551 -3.806414 -10.556072 -0.723126 3.692331 -10.471652 18.159599 -15.441287 1.049345 -6.84804 -44.1549 -75.067963 -0.830429 -18.60671 0.563629 11.975248 6.713501 -43.224991 -5.882109 9.861295 0.70259 -10.936879 -0.360574 7.156214 1e-06 8.774835 -0.0 -15.210873 18.091883 6.61959 -1.844034 2.498506 -2.507281 -10.163605 4.678948 4.621114 -20.976038 -5e-06 -1e-06 -21.226301 2.451695 -3.594005 1e-06 -5e-06 -0.0 -1.362684 2.240801 -0.746324 -21.334929 0.584909 3.008327 -13.821223 -6e-06 2e-06 -23.887188 -0.249082 -0.839483 -58.677834 2.5668 -1.243768 -0.294025 1.679688 0.833257 -14.218219 0.093214 1.300582 -34.212074 -0.287567 0.967172 -20.03323 0.964536 1.212845 -1e-06 -1e-06 2e-06 -3.440393 0.788232 0.501656 -15.928198 -3.167313 2.999711 -6.338831 -1e-06 1e-06 -18.123459 3.648184 -4.905676 -4e-06 0.0 -2e-06 -40.883503 19.016651 -3.605942 30.904512 25.476343 -64.694771 0.479005 21.110985 0.381939 -3.416047 -19.35425 -91.527298 2.243541 -5.25504 -3.180161 14.2829 -0.826594 6.952509 -5e-06 -12.690613 1e-06 16.906933 -17.078539 2.015197 1.665667 -1.955922 -2.878301 4.727801 -4.170588 4.993929 11.020533 6e-06 -0.0 12.109056 -3.735717 -2.866785 0.0 -0.0 -1e-06 1.291986 -1.928549 -1.498091 14.80014 0.567473 3.865611 14.242582 -1.341734 -6.66066 19.631985 0.143929 -0.648244 50.11293 -1.267273 -6.30796 0.353028 -1.511152 -0.03194 20.222803 3.684315 2.316632 18.787285 8e-06 1e-06 10.751633 -0.479867 1.397908 -1e-06 -1e-06 -1e-06 3.273809 0.305946 -0.580112 21.486832 11.830387 2.266135 8.162932 2e-06 -1e-06 18.399096 -3.798987 -4.940575 3e-06 0.0 -2e-06 -4.783916 17.979193 -10.850036 0.008079 -1.221901 8.592628 -11.746342 -0.687456 -23.453732 1.750527 -1.940742 0.163831 0.0 0.0 2e-06 5.577302 -6.010457 -71.591621 0.127817 -0.19826 55.004066 -7.257838 12.068595 -15.510332 -1.412102 1.027991 3.931497 0.0 -0.0 -1e-06 
0.0 0.0 0.0 0.0 -0.0 0.0 -3.564056 89.793686 51.47086 5.598104 3.473984 32.760319 4.333083 0.196001 19.720055 0.944757 -1.201781 3.223288 -5.320267 -3.864412 16.930239 -4.60406 4.356777 -11.854755 -1.929147 -1.836743 -3.420234 -4.149484 -3.240684 0.881574 7.7e-05 -2.2e-05 7e-06 0.066115 -0.062145 -0.051216 0.86557 -3.802297 -10.558484 -0.734636 3.686864 -10.476456 18.577583 -15.521962 0.700324 -3.755991 -41.697468 -77.431366 -1.15562 -19.146923 0.657217 11.488456 5.958256 -42.521294 -5.882111 9.86129 0.702591 -10.93688 -0.360575 7.156216 0.0 8.774828 -1e-06 -15.060273 18.078575 6.675482 -1.844034 2.498506 -2.507281 -10.163608 4.678949 4.621116 -20.97604 -1e-06 3e-06 -21.226305 2.4517 -3.594004 -0.0 -5e-06 -0.0 -1.362683 2.2408 -0.746324 -21.33493 0.584912 3.008329 -13.821224 -1e-06 3e-06 -23.887188 -0.249076 -0.839483 -58.317848 2.616801 -1.254096 -0.294023 1.679688 0.833257 -14.218217 0.093216 1.300583 -34.212074 -0.287558 0.967175 -20.033228 0.964542 1.212846 -1e-06 -0.0 1e-06 -3.44039 0.788233 0.501657 -15.928196 -3.16731 2.999713 -6.33883 -1e-06 2e-06 -18.123459 3.648185 -4.905673 -4e-06 0.0 -2e-06 -41.098118 18.901054 -3.772351 29.995108 25.212133 -65.619797 0.416726 21.30406 0.350919 -3.614017 -19.910601 -92.52388 2.243541 -5.25504 -3.180157 14.282896 -0.826595 6.952508 -2e-06 -12.69061 -4e-06 16.838921 -17.053013 1.974216 1.665668 -1.955924 -2.878299 4.727801 -4.170588 4.993925 11.02053 3e-06 1e-06 12.109056 -3.735718 -2.866784 -1e-06 1e-06 -1e-06 1.291985 -1.928552 -1.498091 14.800138 0.56747 3.865611 14.242577 -1.34174 -6.660657 19.631973 0.143923 -0.648242 49.982651 -1.266789 -6.349734 0.353027 -1.511152 -0.031941 20.222801 3.684309 2.316637 18.787283 2e-06 3e-06 10.751633 -0.479871 1.397908 -1e-06 0.0 0.0 3.273809 0.305947 -0.580109 21.486826 11.830381 2.266141 8.162933 1e-06 1e-06 18.399092 -3.798988 -4.940574 4e-06 -0.0 -2e-06 -4.854795 18.254272 -11.023244 -0.007281 -1.249979 8.314679 -11.809518 -1.060871 -22.915585 1.757317 -1.921818 0.025506 0.0 0.0 2e-06 5.836653 -6.107866 -71.780312 0.131679 -0.201083 54.829315 -7.228047 12.373063 -15.499311 -1.417707 1.029278 3.879452 0.0 -0.0 -1e-06 
